#!OML:ASF H:\Dans Jumps\Project 1\Capture day 1\Session 1\subject.ASF
:FULLY-SPECIFIED
:DEGREES
283
root 0.373676 17.4223 -14.4061 7.46614 -0.73537 -1.87955
lowerback 1.48299 -0.248554 0.257295
upperback 3.55855 -0.370823 1.68457
thorax 2.83122 -0.204406 1.5827
lowerneck -14.399 0.512805 -1.99506
upperneck 29.6349 1.08779 0.649652
head 12.1193 0.341954 0.746088
rclavicle 3.97569e-016 -1.13307e-014
rhumerus -21.1315 -16.2679 -79.278
rradius 25.5968
rwrist 31.665
rhand -19.4972 -26.0863
rfingers 7.12502
rthumb 6.82523 -55.9563
lclavicle 3.97569e-016 -1.13307e-014
lhumerus -19.9856 0.367236 84.7785
lradius 20.1373
lwrist 3.96015
lhand -25.6037 -4.02015
lfingers 7.12502
lthumb 0.928536 25.9576
rfemur -18.2156 -2.91645 19.7968
rtibia 25.9467
rfoot -14.2568 -3.03164
rtoes 7.26624
lfemur -17.928 7.44985 -17.6459
ltibia 25.5088
lfoot -12.8087 4.25216
ltoes -3.30908
284
root 0.374328 17.4113 -14.431 7.63966 -0.760144 -1.87119
lowerback 1.67445 -0.234544 0.219767
upperback 3.60388 -0.350501 1.68959
thorax 2.77009 -0.195365 1.60983
lowerneck -14.4173 0.507308 -2.00512
upperneck 29.4106 1.08514 0.638249
head 12.0339 0.340319 0.741448
rclavicle -2.73329e-015 1.43125e-014
rhumerus -21.0714 -16.2561 -79.2407
rradius 25.6809
rwrist 31.541
rhand -19.55 -26.0769
rfingers 7.12502
rthumb 6.77425 -55.9485
lclavicle -2.73329e-015 1.43125e-014
lhumerus -19.9803 0.25754 84.7632
lradius 20.2935
lwrist 4.24697
lhand -25.6596 -4.00813
lfingers 7.12502
lthumb 0.874505 25.9698
rfemur -18.7609 -2.924 19.8032
rtibia 26.4187
rfoot -14.3513 -3.0255
rtoes 7.1613
lfemur -18.4727 7.57379 -17.7037
ltibia 25.9852
lfoot -12.9259 4.20287
ltoes -3.39205
285
root 0.374831 17.3994 -14.4572 7.82221 -0.780337 -1.86608
lowerback 1.87489 -0.222147 0.185134
upperback 3.64999 -0.332397 1.6956
thorax 2.7048 -0.187349 1.63629
lowerneck -14.4379 0.502829 -2.01577
upperneck 29.1727 1.08393 0.627182
head 11.9439 0.339452 0.737181
rclavicle -6.11263e-015 1.03368e-014
rhumerus -21.019 -16.2389 -79.2035
rradius 25.7673
rwrist 31.4018
rhand -19.6196 -26.0601
rfingers 7.12502
rthumb 6.70705 -55.9338
lclavicle -6.11263e-015 1.03368e-014
lhumerus -19.9897 0.141991 84.7457
lradius 20.4602
lwrist 4.54297
lhand -25.7247 -4.0077
lfingers 7.12502
lthumb 0.811601 25.9705
rfemur -19.3323 -2.92747 19.8139
rtibia 26.9132
rfoot -14.4497 -3.0247
rtoes 7.05794
lfemur -19.0484 7.70415 -17.7607
ltibia 26.4888
lfoot -13.0503 4.14422
ltoes -3.4792
286
root 0.375227 17.3864 -14.4847 8.01227 -0.79449 -1.86566
lowerback 2.08658 -0.211592 0.155749
upperback 3.69762 -0.316789 1.70298
thorax 2.63485 -0.18044 1.66119
lowerneck -14.4654 0.499989 -2.01839
upperneck 28.9265 1.08604 0.60593
head 11.8526 0.339734 0.72822
rclavicle 3.37934e-015 -3.77691e-015
rhumerus -20.9738 -16.2233 -79.1643
rradius 25.8509
rwrist 31.2596
rhand -19.6979 -26.0458
rfingers 7.12502
rthumb 6.63142 -55.922
lclavicle 3.37934e-015 -3.77691e-015
lhumerus -20.0073 0.0168433 84.7261
lradius 20.627
lwrist 4.85154
lhand -25.8041 -4.06067
lfingers 7.12502
lthumb 0.734908 25.9178
rfemur -19.9249 -2.92595 19.8299
rtibia 27.4234
rfoot -14.549 -3.0307
rtoes 6.94892
lfemur -19.6539 7.83584 -17.815
ltibia 27.0187
lfoot -13.1802 4.08043
ltoes -3.56982
287
root 0.375607 17.3724 -14.5135 8.20901 -0.802105 -1.874
lowerback 2.31305 -0.203614 0.135744
upperback 3.7458 -0.304595 1.71403
thorax 2.55728 -0.175009 1.68457
lowerneck -14.4829 0.50181 -1.99913
upperneck 28.6542 1.09585 0.559505
head 11.7497 0.342918 0.707024
rclavicle -2.08724e-015 -6.36111e-015
rhumerus -20.9383 -16.196 -79.1234
rradius 25.9352
rwrist 31.1068
rhand -19.7745 -26.0391
rfingers 7.12502
rthumb 6.55747 -55.9176
lclavicle -2.08724e-015 -6.36111e-015
lhumerus -20.0344 -0.10421 84.7046
lradius 20.7916
lwrist 5.16476
lhand -25.9167 -4.18947
lfingers 7.12502
lthumb 0.6262 25.7894
rfemur -20.5341 -2.91921 19.8551
rtibia 27.9433
rfoot -14.6493 -3.04373
rtoes 6.84348
lfemur -20.2868 7.96679 -17.8621
ltibia 27.5735
lfoot -13.3183 4.01166
ltoes -3.64554
288
root 0.376161 17.3577 -14.5435 8.40908 -0.806029 -1.89111
lowerback 2.55089 -0.196693 0.127362
upperback 3.80101 -0.293822 1.72733
thorax 2.48065 -0.17004 1.70376
lowerneck -14.5072 0.505988 -1.96413
upperneck 28.3653 1.10982 0.495535
head 11.6426 0.347596 0.677263
rclavicle 9.93923e-016 -6.95746e-015
rhumerus -20.9029 -16.1556 -79.0841
rradius 26.0193
rwrist 30.9429
rhand -19.8447 -26.0442
rfingers 7.12502
rthumb 6.48973 -55.9248
lclavicle 9.93923e-016 -6.95746e-015
lhumerus -20.0605 -0.226293 84.6811
lradius 20.9458
lwrist 5.4799
lhand -26.052 -4.40076
lfingers 7.12502
lthumb 0.495521 25.5784
rfemur -21.1533 -2.90906 19.8889
rtibia 28.4681
rfoot -14.7506 -3.06183
rtoes 6.7389
lfemur -20.94 8.09616 -17.9021
ltibia 28.1509
lfoot -13.4653 3.94221
ltoes -3.70331
289
root 0.376958 17.342 -14.5749 8.61489 -0.802967 -1.92028
lowerback 2.80555 -0.192215 0.134169
upperback 3.85781 -0.286069 1.74496
thorax 2.39635 -0.166226 1.71891
lowerneck -14.5353 0.511173 -1.92508
upperneck 28.0625 1.12546 0.426034
head 11.5315 0.35289 0.645111
rclavicle 3.42904e-015 6.95746e-015
rhumerus -20.8766 -16.094 -79.0436
rradius 26.1058
rwrist 30.7694
rhand -19.9049 -26.0599
rfingers 7.12502
rthumb 6.43158 -55.9422
lclavicle 3.42904e-015 6.95746e-015
lhumerus -20.0935 -0.339183 84.6563
lradius 21.091
lwrist 5.79394
lhand -26.206 -4.65475
lfingers 7.12502
lthumb 0.346762 25.3247
rfemur -21.785 -2.89891 19.9359
rtibia 28.9964
rfoot -14.8525 -3.08713
rtoes 6.62462
lfemur -21.617 8.21819 -17.9313
ltibia 28.7493
lfoot -13.6193 3.87582
ltoes -3.74544
290
root 0.378185 17.3256 -14.6073 8.82468 -0.790762 -1.96176
lowerback 3.07375 -0.191152 0.159247
upperback 3.91986 -0.282542 1.76638
thorax 2.31005 -0.164124 1.72778
lowerneck -14.5721 0.517326 -1.88627
upperneck 27.7462 1.14269 0.355331
head 11.4177 0.358842 0.61294
rclavicle -1.49089e-015 1.63003e-014
rhumerus -20.8566 -16.0075 -79.0041
rradius 26.2006
rwrist 30.5827
rhand -19.9507 -26.0852
rfingers 7.12502
rthumb 6.3874 -55.9688
lclavicle -1.49089e-015 1.63003e-014
lhumerus -20.129 -0.445829 84.6314
lradius 21.2336
lwrist 6.12006
lhand -26.369 -4.90631
lfingers 7.12502
lthumb 0.189314 25.0734
rfemur -22.427 -2.89744 19.9967
rtibia 29.5298
rfoot -14.9575 -3.11406
rtoes 6.50784
lfemur -22.3134 8.32828 -17.9494
ltibia 29.3672
lfoot -13.7815 3.81609
ltoes -3.77796
291
root 0.379979 17.3084 -14.6409 9.04196 -0.772383 -2.01437
lowerback 3.35668 -0.191732 0.203845
upperback 3.98225 -0.280554 1.78965
thorax 2.21593 -0.162303 1.72767
lowerneck -14.6236 0.522043 -1.86189
upperneck 27.4274 1.15683 0.301776
head 11.3065 0.364042 0.589356
rclavicle 4.77083e-015 2.18663e-014
rhumerus -20.8537 -15.8994 -78.9625
rradius 26.3067
rwrist 30.388
rhand -19.9892 -26.1107
rfingers 7.12502
rthumb 6.35028 -55.9955
lclavicle 4.77083e-015 2.18663e-014
lhumerus -20.1751 -0.548957 84.605
lradius 21.3807
lwrist 6.46227
lhand -26.5267 -5.09944
lfingers 7.12502
lthumb 0.0370701 24.8803
rfemur -23.0871 -2.90769 20.0705
rtibia 30.0734
rfoot -15.0667 -3.13912
rtoes 6.39012
lfemur -23.0339 8.4297 -17.9595
ltibia 30.0054
lfoot -13.9507 3.7652
ltoes -3.80564
292
root 0.382356 17.2902 -14.6758 9.26845 -0.752124 -2.07574
lowerback 3.65468 -0.193292 0.265303
upperback 4.04496 -0.279043 1.81327
thorax 2.11378 -0.160294 1.71855
lowerneck -14.6894 0.524708 -1.85577
upperneck 27.1025 1.167 0.269171
head 11.1962 0.368222 0.576173
rclavicle 4.96962e-015 8.15017e-015
rhumerus -20.8645 -15.7823 -78.9183
rradius 26.4132
rwrist 30.211
rhand -20.0277 -26.1309
rfingers 7.12502
rthumb 6.3131 -56.0169
lclavicle 4.96962e-015 8.15017e-015
lhumerus -20.2271 -0.64717 84.5768
lradius 21.5321
lwrist 6.83306
lhand -26.6674 -5.18592
lfingers 7.12502
lthumb -0.0988554 24.7938
rfemur -23.7719 -2.92831 20.1548
rtibia 30.6333
rfoot -15.1778 -3.15958
rtoes 6.2607
lfemur -23.781 8.52478 -17.9648
ltibia 30.6637
lfoot -14.1253 3.72303
ltoes -3.8198
293
root 0.385403 17.2708 -14.7119 9.50689 -0.731641 -2.14478
lowerback 3.9669 -0.195081 0.342208
upperback 4.10463 -0.276801 1.83747
thorax 2.00062 -0.157534 1.70141
lowerneck -14.7595 0.527723 -1.85649
upperneck 26.764 1.17721 0.244063
head 11.0822 0.3728 0.566912
rclavicle 3.97569e-015 -7.55382e-015
rhumerus -20.892 -15.662 -78.8684
rradius 26.5203
rwrist 30.0507
rhand -20.0709 -26.1312
rfingers 7.12502
rthumb 6.27137 -56.0183
lclavicle 3.97569e-015 -7.55382e-015
lhumerus -20.2942 -0.738446 84.5473
lradius 21.6897
lwrist 7.23232
lhand -26.7991 -5.19329
lfingers 7.12502
lthumb -0.226047 24.7863
rfemur -24.4882 -2.96159 20.2485
rtibia 31.2165
rfoot -15.2948 -3.16893
rtoes 6.1414
lfemur -24.5581 8.61856 -17.968
ltibia 31.3425
lfoot -14.3048 3.68641
ltoes -3.83062
